<svg width="50" height="50" viewBox="0 0 50 50" fill="none" xmlns="http://www.w3.org/2000/svg">
<path d="M36.6765 12.2188L29.1765 8L22.3382 11.3306L14.3971 14.6612L8 25.3191L10.6471 31.0921V35.7549L14.8382 38.4194H21.2353L26.9706 41.75L37.3382 39.0855L39.5441 33.7566L37.3382 29.0938L41.75 19.324L36.6765 12.2188Z" stroke="#313131" stroke-width="0.75"/>
<path d="M29.1765 8L30.2794 15.1053L34.25 18.8799L41.5294 19.5461" stroke="#313131" stroke-width="0.75"/>
<path fill-rule="evenodd" clip-rule="evenodd" d="M23.6618 12.2187L29.8382 11.9967L30.2794 15.3273L34.0294 18.8799L41.5294 19.546L37.3382 29.0937L31.3824 30.2039L24.3235 24.4309L30.2794 34.6447L39.5441 33.7566L37.1176 39.0855L26.9706 41.75L21.2353 38.4194H14.8382L10.8676 35.7549V31.3141L8 25.3191L14.3971 14.6612L21.6765 11.7747L23.6618 12.2187ZM22.1177 16.6594L23.2206 23.0986H20.7941L22.1177 16.6594Z" fill="#313131"/>
</svg>
