<svg width="50" height="50" viewBox="0 0 50 50" fill="none" xmlns="http://www.w3.org/2000/svg">
<path d="M20.7202 22.7737L20.7188 22.7715L20.7202 22.7804V22.7737Z" fill="#41B8F0"/>
<path d="M12.3346 24.7838C12.6284 25.9938 13.0973 27.1519 13.7278 28.2305L10.6227 31.3341L10.9966 31.708C12.1142 32.8263 13.6018 33.4415 15.183 33.4415C16.2084 33.4415 17.2142 33.1774 18.1008 32.6768C19.1658 33.3282 20.3172 33.8174 21.5218 34.1306V38.4948H22.0487C24.6969 38.4948 27.0253 36.731 27.7461 34.1892C28.9621 33.8961 30.1236 33.4259 31.2035 32.794L34.3079 35.8998L34.6817 35.5259C36.5688 33.6415 36.9595 30.7332 35.6505 28.4217C36.302 27.3566 36.7905 26.2087 37.1043 25H41.4968V24.4732C41.4968 21.8087 39.7175 19.4777 37.1595 18.7656C36.8685 17.5543 36.4003 16.3963 35.7684 15.319L38.8721 12.2126L38.5002 11.84C37.3805 10.7217 35.8944 10.1052 34.3118 10.1052C33.2865 10.1052 32.2793 10.3707 31.3941 10.8719C30.3296 10.2204 29.181 9.73063 27.9743 9.41668V5H27.4482C24.7669 5 22.4319 6.79004 21.7312 9.36488C20.5247 9.65861 19.3679 10.1255 18.2934 10.7568L15.1884 7.65034L14.8145 8.02288C12.9288 9.90923 12.5374 12.8149 13.845 15.1277C13.1936 16.1934 12.7058 17.3428 12.3912 18.5487H8V19.0763C8 21.7407 9.7772 24.0724 12.3346 24.7838ZM20.4257 22.2736L26.5914 15.3811C26.6668 15.2955 26.7781 15.2443 26.8952 15.2443L30.1451 15.214C30.3149 15.214 30.4699 15.3191 30.5305 15.4747C30.5945 15.6343 30.5548 15.8129 30.4288 15.9282L25.2952 20.7107L28.3154 20.8792C28.4812 20.8873 28.6266 20.9957 28.6819 21.1547C28.7385 21.311 28.6933 21.4882 28.5667 21.5994L21.2126 28.176C21.1372 28.2447 21.0401 28.2818 20.937 28.2818C20.8265 28.2818 20.7241 28.2387 20.6459 28.1605C20.4917 28.0063 20.4842 27.7563 20.6298 27.5939L24.9866 22.7251L20.7544 22.9596H20.749C20.5664 22.9596 20.427 22.868 20.361 22.7266C20.289 22.5741 20.3146 22.3969 20.4257 22.2736Z" fill="#41B8F0"/>
<path d="M35.8409 40.07C35.1268 40.7214 34.4208 41.0367 33.6824 41.0367H33.607C32.6369 40.9801 31.9375 40.2964 31.7402 40.0815C31.6816 40.0229 30.2742 38.6539 28.4445 38.6539L28.3333 38.6559C27.287 38.6936 26.3445 39.1848 25.5321 40.1159C24.9022 40.8347 24.2467 41.1992 23.5514 41.1992C22.4081 41.1844 21.5343 40.1266 21.533 40.1266L21.4097 40.0155C20.4968 39.3331 18.9588 38.6048 17.3816 38.6048C16.0653 38.6048 14.9537 39.1128 14.0731 40.1132C13.4237 40.8496 12.7116 41.2309 11.9544 41.2504L11.9571 41.4317L11.9444 41.2525H11.8925C10.9116 41.2525 10.0574 40.665 9.63293 40.312L9.50894 40.2104L8.70923 40.9777L8.86148 41.1056C9.40451 41.5738 10.5181 42.3553 11.8924 42.3553H11.8944H11.9597C13.0457 42.3324 14.034 41.8224 14.8997 40.8408C15.5647 40.0835 16.4068 39.7023 17.3998 39.7023C18.9709 39.7023 20.4375 40.6785 20.6867 40.8503C21.1779 41.3811 22.1985 42.2758 23.5277 42.3021C24.5436 42.3021 25.5225 41.7961 26.3606 40.8408C26.9703 40.1422 27.6258 39.7885 28.3642 39.7568H28.4457C29.5526 39.7568 30.5436 40.5047 30.8211 40.7351L30.9282 40.826C31.1081 41.0281 32.0688 42.04 33.5172 42.1363C34.5635 42.1949 35.6131 41.7698 36.5845 40.8867C37.2865 40.2446 38.0781 39.9192 38.9391 39.9192C39.9893 39.9192 40.882 40.4117 41.322 40.7067L41.458 40.7957L42.1702 39.9494L42.0098 39.8362C41.4715 39.4549 40.3572 38.8142 38.9283 38.8142C37.7913 38.8142 36.7524 39.2373 35.8409 40.07Z" fill="#41B8F0"/>
<path d="M38.9286 41.4598C37.7914 41.4598 36.7532 41.8829 35.841 42.7135C35.1269 43.367 34.4209 43.6836 33.6825 43.6836H33.6071C32.637 43.625 31.9376 42.9398 31.7403 42.7243C31.5907 42.5787 30.2258 41.3007 28.4446 41.3007L28.3334 41.3027C27.2871 41.3411 26.3446 41.8296 25.5321 42.7606C24.9036 43.4794 24.2481 43.8439 23.5535 43.8439H23.5515C22.4082 43.8304 21.5344 42.7734 21.5331 42.7714L21.4098 42.6602C20.4969 41.9804 18.9588 41.2515 17.3817 41.2515C16.0653 41.2515 14.9537 41.7575 14.0732 42.7579C13.4244 43.4943 12.7117 43.8756 11.9545 43.8951L11.9572 44.0609L11.9484 43.8972H11.8925C10.8746 43.8972 9.97381 43.2417 9.63293 42.9581L9.50894 42.8543L8.70923 43.6216L8.86148 43.7517C9.40451 44.2179 10.5181 45 11.8924 45H11.9598C13.0444 44.9778 14.0334 44.4677 14.8998 43.4855C15.5654 42.7303 16.4069 42.347 17.3999 42.347C18.9709 42.347 20.4376 43.3252 20.6868 43.495C21.2864 44.1451 22.2667 44.9225 23.5278 44.9475C24.5437 44.9475 25.5226 44.4408 26.3607 43.4855C26.9704 42.7869 27.6259 42.4319 28.3609 42.4022L28.4458 42.4002C29.5507 42.4002 30.5437 43.1494 30.8212 43.3778L30.9283 43.4728C31.1082 43.6749 32.0729 44.6854 33.5173 44.7831C34.5804 44.8397 35.6152 44.4146 36.5846 43.5294C37.2866 42.8894 38.0802 42.564 38.9392 42.564C39.9908 42.564 40.8821 43.0571 41.322 43.3515L41.4581 43.4424L42.1702 42.5963L42.0099 42.4811C41.4717 42.0999 40.3554 41.4598 38.9286 41.4598Z" fill="#41B8F0"/>
</svg>
