<svg width="216" height="37" viewBox="0 0 216 37" fill="none" xmlns="http://www.w3.org/2000/svg">
  <path
    d="M13.9453 14.4121V10.9668H6.2207V17.0781H12.8789V19.6484H6.2207V26.4297H8.8457V29H0.505859V26.4297H3.10352V10.9668H0.505859V8.39648H16.4883V14.4121H13.9453ZM23.0508 9.79102C23.0508 10.2559 22.8822 10.6569 22.5449 10.9941C22.2077 11.3314 21.8066 11.5 21.3418 11.5C20.877 11.5 20.4805 11.3314 20.1523 10.9941C19.8242 10.6569 19.6602 10.2559 19.6602 9.79102C19.6602 9.32617 19.8242 8.92513 20.1523 8.58789C20.4805 8.25065 20.877 8.08203 21.3418 8.08203C21.8249 8.08203 22.2305 8.24609 22.5586 8.57422C22.8867 8.90234 23.0508 9.30794 23.0508 9.79102ZM25.0742 26.4844V29H17.8145V26.4844H20.0566V17.1602H17.8145V14.6309H22.8867V26.4844H25.0742ZM40.4551 19.334V26.4844H42.8613V29H37.625V19.5117C37.625 18.6094 37.4928 17.9622 37.2285 17.5703C36.9733 17.1784 36.5495 16.9824 35.957 16.9824C34.6992 16.9824 33.2865 17.6022 31.7188 18.8418V26.4844H34.1934V29H26.4004V26.4844H28.9297V17.1602H26.4004V14.6309H31.7188V16.3672C33.4779 15.082 35.1322 14.4395 36.6816 14.4395C37.9668 14.4395 38.9147 14.8359 39.5254 15.6289C40.1452 16.4219 40.4551 17.6569 40.4551 19.334ZM62.043 26.4844V29H56.6426V26.8945C55.2025 28.4622 53.4844 29.2461 51.4883 29.2461C50.1029 29.2461 48.877 28.9225 47.8105 28.2754C46.7533 27.6191 45.9284 26.7305 45.3359 25.6094C44.7526 24.4883 44.4609 23.2487 44.4609 21.8906C44.4609 20.5052 44.7708 19.2292 45.3906 18.0625C46.0195 16.8958 46.8854 15.9707 47.9883 15.2871C49.0911 14.5944 50.2852 14.248 51.5703 14.248C52.5 14.248 53.3796 14.4349 54.209 14.8086C55.0475 15.1823 55.8587 15.7702 56.6426 16.5723V10.8848H53.8672V8.39648H59.4453V26.4844H62.043ZM52.0215 26.7305C52.8965 26.7305 53.6849 26.498 54.3867 26.0332C55.0885 25.5684 55.64 24.9486 56.041 24.1738C56.4421 23.3991 56.6426 22.5697 56.6426 21.6855C56.6426 20.7923 56.4421 19.9766 56.041 19.2383C55.64 18.5 55.084 17.9167 54.373 17.4883C53.6621 17.0599 52.86 16.8457 51.9668 16.8457C51.1009 16.8457 50.3262 17.0781 49.6426 17.543C48.9681 17.9987 48.4349 18.6094 48.043 19.375C47.651 20.1315 47.4551 20.9427 47.4551 21.8086C47.4551 22.7383 47.6556 23.5768 48.0566 24.3242C48.4577 25.0716 49.0046 25.6595 49.6973 26.0879C50.39 26.5163 51.1647 26.7305 52.0215 26.7305ZM85.0391 14.4121V10.9668H76.2207V17.1055H83.8906V19.6758H76.2207V26.4297H85.0391V22.6699H87.582V29H70.4512V26.4297H73.1035V10.9668H70.4512V8.39648H87.582V14.4121H85.0391ZM103.346 19.334V26.4844H105.752V29H100.516V19.5117C100.516 18.6094 100.383 17.9622 100.119 17.5703C99.8639 17.1784 99.4401 16.9824 98.8477 16.9824C97.5898 16.9824 96.1771 17.6022 94.6094 18.8418V26.4844H97.084V29H89.291V26.4844H91.8203V17.1602H89.291V14.6309H94.6094V16.3672C96.3685 15.082 98.0228 14.4395 99.5723 14.4395C100.857 14.4395 101.805 14.8359 102.416 15.6289C103.036 16.4219 103.346 17.6569 103.346 19.334ZM122.527 22.5332H110.482C110.656 23.9095 111.189 24.9987 112.082 25.8008C112.975 26.5938 114.069 26.9902 115.363 26.9902C116.311 26.9902 117.191 26.7943 118.002 26.4023C118.813 26.0104 119.492 25.4089 120.039 24.5977L122.527 25.7188C121.743 26.9401 120.714 27.8652 119.438 28.4941C118.171 29.1139 116.79 29.4238 115.295 29.4238C113.745 29.4238 112.369 29.1003 111.166 28.4531C109.963 27.806 109.024 26.9036 108.35 25.7461C107.684 24.5885 107.352 23.2852 107.352 21.8359C107.352 20.3958 107.68 19.097 108.336 17.9395C109.001 16.7819 109.908 15.8796 111.057 15.2324C112.205 14.5762 113.472 14.248 114.857 14.248C116.37 14.248 117.688 14.5853 118.809 15.2598C119.939 15.9251 120.827 16.8822 121.475 18.1309C122.122 19.3704 122.473 20.8379 122.527 22.5332ZM114.912 16.5996C113.846 16.5996 112.911 16.9596 112.109 17.6797C111.307 18.3906 110.792 19.334 110.564 20.5098H119.561C119.296 19.334 118.736 18.3906 117.879 17.6797C117.022 16.9596 116.033 16.5996 114.912 16.5996ZM129.896 23.2305V26.4844H133.027V29H124.209V26.4844H127.094V17.1602H124.209V14.6309H129.336V17.8848C129.91 16.5996 130.621 15.7064 131.469 15.2051C132.326 14.6947 133.547 14.4395 135.133 14.4395H135.775V17.2969H135.16C133.629 17.2969 132.49 17.4974 131.742 17.8984C130.995 18.2995 130.498 18.9056 130.252 19.7168C130.015 20.528 129.896 21.6992 129.896 23.2305ZM149.529 16.709V14.6309H154.93V17.1602H152.332V27.9336C152.332 30.4401 151.699 32.3724 150.432 33.7305C149.174 35.0977 147.333 35.7812 144.908 35.7812C142.611 35.7812 140.652 35.1341 139.029 33.8398L140.848 31.8027C141.504 32.2858 142.16 32.6458 142.816 32.8828C143.482 33.1289 144.206 33.252 144.99 33.252C146.412 33.252 147.524 32.8099 148.326 31.9258C149.128 31.0417 149.529 29.8704 149.529 28.4121V27.0723C148.91 27.8014 148.121 28.3757 147.164 28.7949C146.216 29.2142 145.268 29.4238 144.32 29.4238C142.99 29.4238 141.791 29.0866 140.725 28.4121C139.667 27.7376 138.838 26.8444 138.236 25.7324C137.644 24.6113 137.348 23.3854 137.348 22.0547C137.348 20.6966 137.658 19.4342 138.277 18.2676C138.906 17.1009 139.763 16.1712 140.848 15.4785C141.932 14.7858 143.135 14.4395 144.457 14.4395C145.405 14.4395 146.289 14.6263 147.109 15C147.939 15.3737 148.745 15.9434 149.529 16.709ZM144.854 26.8945C145.747 26.8945 146.553 26.6712 147.273 26.2246C147.993 25.778 148.554 25.1764 148.955 24.4199C149.356 23.6634 149.557 22.8477 149.557 21.9727C149.557 21.1523 149.356 20.3639 148.955 19.6074C148.554 18.8509 147.998 18.2402 147.287 17.7754C146.576 17.3105 145.783 17.0781 144.908 17.0781C144.051 17.0781 143.272 17.3014 142.57 17.748C141.868 18.1947 141.322 18.7962 140.93 19.5527C140.538 20.3092 140.342 21.125 140.342 22C140.342 22.8932 140.529 23.7135 140.902 24.4609C141.276 25.2083 141.805 25.8008 142.488 26.2383C143.181 26.6758 143.969 26.8945 144.854 26.8945ZM161.219 17.1602L164.336 25.2812L167.357 17.1602H165.443V14.6309H172.307V17.1602H170.188L163.092 35.4395H158.307V32.9785H161.137L162.846 28.7539L158.143 17.1602H155.736V14.6309H162.928V17.1602H161.219Z"
    fill="white" />
  <path
    d="M206.75 7.75L206.75 24.25L200.5 24.25C195.944 24.25 192.25 20.5563 192.25 16C192.25 11.4437 195.944 7.75 200.5 7.75L206.75 7.75Z"
    stroke="white" stroke-width="2.5" />
  <path d="M193 16L172 16" stroke="white" stroke-width="2.5" />
  <path d="M208 10.5L216 10.5" stroke="white" stroke-width="3" />
  <path d="M208 21.5L216 21.5" stroke="white" stroke-width="3" />
</svg>
