<svg width="50" height="50" viewBox="0 0 50 50" fill="none" xmlns="http://www.w3.org/2000/svg">
<path d="M17.7883 19.8158C22.3278 13.6974 20.6666 8.05592 19.2686 6C23.0185 7.97368 27.2455 12.5789 28.8903 14.6349C33.035 19.5691 29.7949 24.4211 27.6567 26.2303C27.0646 26.8224 23.7916 28.7796 22.2291 29.6842C19.4659 31.4605 18.9396 33.5493 19.0219 34.3717C18.8245 37.3322 22.0646 41.6908 23.7094 43.5C19.3672 41.7237 16.8014 39.7993 16.0613 39.0592C11.1271 34.7171 11.7028 30.0132 12.6074 28.2039C12.4429 27.9572 13.2488 25.9342 17.7883 19.8158Z" fill="url(#paint0_linear)"/>
<path d="M30.6172 30.4244C34.5646 28.056 33.9067 24.3389 33.0843 22.7764C33.4791 23.3685 35.2225 26.1481 36.0448 27.4639C38.4133 31.2139 36.7027 34.454 35.5514 35.6053C33.9725 36.9869 30.9462 38.3191 29.6304 38.8126C25.0909 39.602 23.7916 42.2665 23.7093 43.5001C20.9462 37.3816 23.3804 34.2895 24.6962 33.6316C28.3968 31.6579 29.0547 31.329 30.6172 30.4244Z" fill="url(#paint1_linear)"/>
<defs>
<linearGradient id="paint0_linear" x1="21.4461" y1="6" x2="21.4461" y2="43.5" gradientUnits="userSpaceOnUse">
<stop stop-color="#B73C00"/>
<stop offset="0.739583" stop-color="#41B8F0"/>
</linearGradient>
<linearGradient id="paint1_linear" x1="29.8391" y1="22.7764" x2="29.8391" y2="43.5001" gradientUnits="userSpaceOnUse">
<stop stop-color="#B73C00"/>
<stop offset="0.739583" stop-color="#41B8F0"/>
</linearGradient>
</defs>
</svg>
