<svg width="50" height="50" viewBox="0 0 50 50" fill="none" xmlns="http://www.w3.org/2000/svg">
<path fill-rule="evenodd" clip-rule="evenodd" d="M26.0218 40.9909C24.7879 41.1754 23.4423 41.2745 22.0353 41.2745C15.997 41.2745 11.1033 39.4215 11.1033 37.1335C11.1033 36.6847 11.2931 36.2524 11.6421 35.8504V33.6064C11.2261 33.1576 11 32.5436 11 32.1719C11 31.8002 11.053 31.6955 11.1507 31.4643C11.254 31.5689 11.3685 31.6735 11.4913 31.7699C13.2389 33.1631 17.1723 34.0332 21.2592 34.1571C22.0856 34.1818 22.9175 34.1763 23.7438 34.1405C23.6796 34.4737 23.6461 34.8014 23.6461 35.1345C23.6461 36.2964 23.8666 37.3978 24.3077 38.4331C24.7069 39.3665 25.2764 40.22 26.0218 40.9909Z" fill="#262626"/>
<path fill-rule="evenodd" clip-rule="evenodd" d="M32.8808 19.0962C32.9897 19.3219 33.0539 19.4706 33.065 19.768C32.998 19.746 32.931 19.7267 32.8613 19.7102C32.6212 19.6551 32.3811 19.6496 32.1494 19.6826C32.4174 19.4982 32.6603 19.3027 32.8808 19.0962ZM23.9476 33.3586C23.0682 33.4055 22.1721 33.4137 21.2844 33.3862C17.3538 33.2678 13.6018 32.461 11.991 31.1725C11.8347 31.0486 11.7035 30.9219 11.5946 30.7925C11.6114 30.7732 11.6253 30.7567 11.6421 30.7402V21.3154C11.2261 20.8693 11 20.2581 11 19.8809C11 19.5037 11.0558 19.388 11.1619 19.1485C11.2624 19.2504 11.3741 19.3495 11.4913 19.4431C13.2389 20.839 17.1723 21.7064 21.2592 21.8303C24.7851 21.9376 28.4449 21.4916 30.935 20.3545C30.7508 20.5775 30.6112 20.8418 30.5414 21.1419C29.9496 23.6778 28.269 26.1503 26.7839 28.3365C25.5667 30.1317 24.4584 31.7644 23.9476 33.3586Z" fill="#262626"/>
<path fill-rule="evenodd" clip-rule="evenodd" d="M22.0097 8C24.9353 8 27.5985 8.44329 29.5387 9.16192C31.6408 9.93838 32.9417 11.0673 32.9417 12.3613C32.9417 12.8239 32.7742 13.2672 32.4643 13.6775V18.405C32.2187 18.6638 31.9227 18.9006 31.585 19.1209C29.3098 20.6022 25.22 21.1777 21.281 21.0593C17.3532 20.9409 13.6013 20.1341 11.9905 18.8455C11.8425 18.7272 11.7141 18.606 11.608 18.4821L11.6415 18.4463V13.7848C11.2758 13.3443 11.0776 12.8652 11.0776 12.3613C11.0776 11.0673 12.3785 9.94113 14.4806 9.16192C16.4208 8.44329 19.084 8 22.0097 8Z" fill="#262626"/>
<path fill-rule="evenodd" clip-rule="evenodd" d="M32.4282 21.5686C33.2099 24.8809 35.9541 28.0693 37.6988 31.1558C40.658 36.39 38.4302 41.8334 32.4282 41.8334C25.8846 41.8334 24.2822 35.9247 27.5317 30.5308C29.2737 27.637 31.708 24.6524 32.4282 21.5686ZM27.8946 34.1405C27.8583 33.766 28.1431 33.4329 28.5227 33.3971C28.9024 33.3613 29.2402 33.6421 29.2765 34.0193C29.3658 34.928 29.5668 35.7705 29.9548 36.4891C30.3289 37.1857 30.8817 37.7887 31.6829 38.2513C32.9865 39.0112 30.7923 41.0294 28.7265 37.1279C28.2491 36.2358 28.0007 35.2226 27.8946 34.1405Z" fill="#DE9C2D"/>
<path fill-rule="evenodd" clip-rule="evenodd" d="M16.7039 11.9594C17.4437 11.9594 18.0411 12.1659 18.0411 12.4192C18.0411 12.6725 17.4437 12.879 16.7039 12.879C15.9641 12.879 15.3667 12.6725 15.3667 12.4192C15.3667 12.1687 15.9641 11.9594 16.7039 11.9594Z" fill="black"/>
<path fill-rule="evenodd" clip-rule="evenodd" d="M29.0563 10.1697C27.2669 9.5061 24.7767 9.0986 22.0102 9.0986C19.2465 9.0986 16.7564 9.50886 14.9642 10.1697C13.3366 10.7699 12.3289 11.5519 12.3289 12.3614C12.3289 13.1736 13.3366 13.9501 14.9642 14.553C16.7536 15.2139 19.2437 15.6269 22.0102 15.6269C24.7739 15.6269 27.2669 15.2166 29.0563 14.553C30.6838 13.9528 31.6916 13.1708 31.6916 12.3614C31.6916 11.5491 30.6838 10.7699 29.0563 10.1697Z" fill="white"/>
<path fill-rule="evenodd" clip-rule="evenodd" d="M16.7026 11.4445C17.917 11.4445 18.8996 11.8795 18.8996 12.4192C18.8996 12.9588 17.917 13.3938 16.7026 13.3938C15.4883 13.3938 14.5056 12.9588 14.5056 12.4192C14.5056 11.8795 15.4883 11.4445 16.7026 11.4445Z" fill="#262626"/>
</svg>
