<svg width="50" height="50" viewBox="0 0 50 50" fill="none" xmlns="http://www.w3.org/2000/svg">
<path d="M10.4778 25.0075C10.4778 19.0819 14.1457 13.9976 19.33 11.9038L21.9752 6.59044C12.9576 7.87152 6 15.6415 6 25.0075C6 33.5287 11.7592 40.7296 19.5893 42.9237L20.0981 38.3964C14.5115 36.5115 10.4778 31.2218 10.4778 25.0075Z" fill="#B8C9D9"/>
<path d="M43.2071 25.0075C43.2071 16.488 37.4504 9.28845 29.623 7.09264L29.1027 11.6166C34.6924 13.4997 38.7292 18.791 38.7292 25.0075C38.7292 30.8985 35.104 35.9579 29.9676 38.0742L27.249 43.422C36.2583 42.1337 43.2071 34.3674 43.2071 25.0075Z" fill="#B8C9D9"/>
<path d="M35.2519 22.753C35.4282 22.4061 35.4116 22.0251 35.208 21.6935C35.0045 21.3617 34.6432 21.2295 34.2539 21.2295H25.7431L27.5752 5.30137C27.6377 4.76137 27.3029 4.20192 26.7815 4.04716C26.6739 4.01525 26.5649 4 26.4573 4C26.044 4 25.6533 4.23523 25.4609 4.62158L13.951 27.749C13.7783 28.0959 13.7974 28.5579 14.0014 28.8875C14.2055 29.2171 14.5655 29.4855 14.9532 29.4855H23.3518L21.6301 44.8141C21.5699 45.352 21.9031 45.8044 22.4217 45.9594C22.5282 45.9913 22.6361 46 22.7425 46C23.1551 46 23.5458 45.7709 23.7407 45.3874L35.2519 22.753Z" fill="#FAD15C"/>
</svg>
